<mxfile host="Electron" modified="2024-03-15T15:29:53.433Z" agent="Mozilla/5.0 (Windows NT 10.0; Win64; x64) AppleWebKit/537.36 (KHTML, like Gecko) draw.io/24.0.4 Chrome/120.0.6099.109 Electron/28.1.0 Safari/537.36" etag="uSp8rRubNCWW5TofrvWj" scale="1.45" border="10" version="24.0.4" type="device">
  <diagram name="第 1 页" id="Jd7-73F074mrr_AuGgJH">
    <mxGraphModel dx="2234" dy="836" grid="0" gridSize="10" guides="1" tooltips="1" connect="1" arrows="1" fold="1" page="0" pageScale="1" pageWidth="827" pageHeight="1169" math="0" shadow="0">
      <root>
        <mxCell id="0" />
        <mxCell id="1" parent="0" />
        <mxCell id="nYVsloN-27Saqx4OQUJ_-3" style="edgeStyle=orthogonalEdgeStyle;rounded=0;orthogonalLoop=1;jettySize=auto;html=1;exitX=1;exitY=0.5;exitDx=0;exitDy=0;entryX=0;entryY=0.5;entryDx=0;entryDy=0;shape=flexArrow;startArrow=block;" parent="1" source="VpwYdxR6YieiCVpPiCMP-21" target="nYVsloN-27Saqx4OQUJ_-2" edge="1">
          <mxGeometry relative="1" as="geometry" />
        </mxCell>
        <mxCell id="nYVsloN-27Saqx4OQUJ_-4" style="edgeStyle=orthogonalEdgeStyle;rounded=0;orthogonalLoop=1;jettySize=auto;html=1;exitX=1;exitY=0.25;exitDx=0;exitDy=0;entryX=0;entryY=0.25;entryDx=0;entryDy=0;shape=flexArrow;startArrow=block;" parent="1" source="VpwYdxR6YieiCVpPiCMP-21" target="nYVsloN-27Saqx4OQUJ_-2" edge="1">
          <mxGeometry relative="1" as="geometry" />
        </mxCell>
        <mxCell id="nYVsloN-27Saqx4OQUJ_-5" style="edgeStyle=orthogonalEdgeStyle;rounded=0;orthogonalLoop=1;jettySize=auto;html=1;exitX=1;exitY=0.75;exitDx=0;exitDy=0;entryX=0;entryY=0.75;entryDx=0;entryDy=0;shape=flexArrow;startArrow=block;" parent="1" source="VpwYdxR6YieiCVpPiCMP-21" target="nYVsloN-27Saqx4OQUJ_-2" edge="1">
          <mxGeometry relative="1" as="geometry" />
        </mxCell>
        <mxCell id="VpwYdxR6YieiCVpPiCMP-21" value="" style="rounded=0;whiteSpace=wrap;html=1;dashed=1;strokeWidth=2;fillColor=#e1d5e7;strokeColor=#9673a6;" parent="1" vertex="1">
          <mxGeometry x="-143" y="444" width="230" height="190" as="geometry" />
        </mxCell>
        <mxCell id="VpwYdxR6YieiCVpPiCMP-20" value="" style="rounded=0;whiteSpace=wrap;html=1;dashed=1;strokeWidth=2;fillColor=#e1d5e7;strokeColor=#9673a6;" parent="1" vertex="1">
          <mxGeometry x="-363" y="444" width="160" height="270" as="geometry" />
        </mxCell>
        <mxCell id="VpwYdxR6YieiCVpPiCMP-14" style="edgeStyle=orthogonalEdgeStyle;rounded=0;orthogonalLoop=1;jettySize=auto;html=1;exitX=1;exitY=0.5;exitDx=0;exitDy=0;entryX=0;entryY=0.5;entryDx=0;entryDy=0;" parent="1" source="VpwYdxR6YieiCVpPiCMP-1" target="VpwYdxR6YieiCVpPiCMP-7" edge="1">
          <mxGeometry relative="1" as="geometry" />
        </mxCell>
        <mxCell id="VpwYdxR6YieiCVpPiCMP-1" value="测试工程1仓库" style="rounded=0;whiteSpace=wrap;html=1;fillColor=#fff2cc;strokeColor=#d6b656;fontSize=15;fontStyle=1" parent="1" vertex="1">
          <mxGeometry x="-343" y="474" width="120" height="40" as="geometry" />
        </mxCell>
        <mxCell id="VpwYdxR6YieiCVpPiCMP-3" value="测试工程2仓库" style="rounded=0;whiteSpace=wrap;html=1;fillColor=#fff2cc;strokeColor=#d6b656;fontSize=15;fontStyle=1" parent="1" vertex="1">
          <mxGeometry x="-343" y="534" width="120" height="40" as="geometry" />
        </mxCell>
        <mxCell id="VpwYdxR6YieiCVpPiCMP-4" value="……" style="rounded=0;whiteSpace=wrap;html=1;fillColor=#fff2cc;strokeColor=#d6b656;fontSize=15;fontStyle=1" parent="1" vertex="1">
          <mxGeometry x="-343" y="594" width="120" height="40" as="geometry" />
        </mxCell>
        <mxCell id="VpwYdxR6YieiCVpPiCMP-6" value="Utility仓库" style="rounded=0;whiteSpace=wrap;html=1;fillColor=#fff2cc;strokeColor=#d6b656;fontSize=15;fontStyle=1" parent="1" vertex="1">
          <mxGeometry x="-343" y="654" width="120" height="40" as="geometry" />
        </mxCell>
        <mxCell id="VpwYdxR6YieiCVpPiCMP-18" style="edgeStyle=orthogonalEdgeStyle;rounded=0;orthogonalLoop=1;jettySize=auto;html=1;exitX=0.5;exitY=1;exitDx=0;exitDy=0;entryX=0;entryY=0.5;entryDx=0;entryDy=0;startArrow=classic;startFill=1;endArrow=none;endFill=0;" parent="1" source="VpwYdxR6YieiCVpPiCMP-7" target="VpwYdxR6YieiCVpPiCMP-10" edge="1">
          <mxGeometry relative="1" as="geometry" />
        </mxCell>
        <mxCell id="VpwYdxR6YieiCVpPiCMP-29" style="rounded=0;orthogonalLoop=1;jettySize=auto;html=1;exitX=1;exitY=0;exitDx=0;exitDy=0;entryX=0;entryY=1;entryDx=0;entryDy=0;sketch=1;curveFitting=1;jiggle=2;flowAnimation=0;edgeStyle=isometricEdgeStyle;" parent="1" source="VpwYdxR6YieiCVpPiCMP-7" target="VpwYdxR6YieiCVpPiCMP-28" edge="1">
          <mxGeometry relative="1" as="geometry" />
        </mxCell>
        <mxCell id="VpwYdxR6YieiCVpPiCMP-7" value="测试工程1仓库" style="rounded=0;whiteSpace=wrap;html=1;fillColor=#fff2cc;strokeColor=#d6b656;fontSize=15;fontStyle=1" parent="1" vertex="1">
          <mxGeometry x="-128" y="474" width="120" height="40" as="geometry" />
        </mxCell>
        <mxCell id="VpwYdxR6YieiCVpPiCMP-10" value="Utility仓库" style="rounded=0;whiteSpace=wrap;html=1;fillColor=#fff2cc;strokeColor=#d6b656;fontSize=15;fontStyle=1" parent="1" vertex="1">
          <mxGeometry x="-48" y="574" width="120" height="40" as="geometry" />
        </mxCell>
        <mxCell id="VpwYdxR6YieiCVpPiCMP-12" style="edgeStyle=orthogonalEdgeStyle;rounded=0;orthogonalLoop=1;jettySize=auto;html=1;exitX=1;exitY=0.5;exitDx=0;exitDy=0;exitPerimeter=0;entryX=0;entryY=0.5;entryDx=0;entryDy=0;" parent="1" target="VpwYdxR6YieiCVpPiCMP-1" edge="1">
          <mxGeometry relative="1" as="geometry">
            <mxPoint x="-423" y="494" as="sourcePoint" />
          </mxGeometry>
        </mxCell>
        <mxCell id="VpwYdxR6YieiCVpPiCMP-16" value="&lt;span style=&quot;font-size: 15px; text-wrap: nowrap;&quot;&gt;&lt;b&gt;触发&lt;/b&gt;&lt;/span&gt;" style="text;html=1;align=center;verticalAlign=middle;whiteSpace=wrap;rounded=0;fillColor=#f8cecc;strokeColor=#b85450;gradientColor=#ea6b66;" parent="1" vertex="1">
          <mxGeometry x="-413" y="454" width="60" height="30" as="geometry" />
        </mxCell>
        <mxCell id="VpwYdxR6YieiCVpPiCMP-17" value="&lt;span style=&quot;font-size: 15px; text-wrap: nowrap;&quot;&gt;&lt;b&gt;自动克隆&lt;/b&gt;&lt;/span&gt;" style="text;html=1;align=center;verticalAlign=middle;whiteSpace=wrap;rounded=0;fillColor=#f5f5f5;fontColor=#333333;strokeColor=#666666;" parent="1" vertex="1">
          <mxGeometry x="-203" y="454" width="70" height="30" as="geometry" />
        </mxCell>
        <mxCell id="VpwYdxR6YieiCVpPiCMP-19" value="&lt;span style=&quot;font-size: 15px; text-wrap: nowrap;&quot;&gt;&lt;b&gt;submodule&lt;/b&gt;&lt;/span&gt;" style="text;html=1;align=center;verticalAlign=middle;whiteSpace=wrap;rounded=0;fillColor=#f5f5f5;fontColor=#333333;strokeColor=#666666;" parent="1" vertex="1">
          <mxGeometry x="-118" y="539" width="85" height="30" as="geometry" />
        </mxCell>
        <mxCell id="VpwYdxR6YieiCVpPiCMP-26" value="&lt;div&gt;&lt;b style=&quot;font-size: 15px; text-wrap: nowrap;&quot;&gt;gitlab&lt;/b&gt;&lt;/div&gt;&lt;b style=&quot;font-size: 15px; text-wrap: nowrap;&quot;&gt;runner&lt;/b&gt;" style="text;html=1;align=center;verticalAlign=middle;whiteSpace=wrap;rounded=0;fillColor=#f5f5f5;fontColor=#333333;strokeColor=#666666;" parent="1" vertex="1">
          <mxGeometry x="-58" y="388" width="60" height="40" as="geometry" />
        </mxCell>
        <mxCell id="VpwYdxR6YieiCVpPiCMP-27" value="&lt;div&gt;&lt;b style=&quot;font-size: 15px; text-wrap: nowrap;&quot;&gt;gitlab&lt;/b&gt;&lt;/div&gt;&lt;span style=&quot;font-size: 15px; text-wrap: nowrap;&quot;&gt;&lt;b&gt;sever&lt;/b&gt;&lt;/span&gt;" style="text;html=1;align=center;verticalAlign=middle;whiteSpace=wrap;rounded=0;fillColor=#f5f5f5;fontColor=#333333;strokeColor=#666666;" parent="1" vertex="1">
          <mxGeometry x="-313" y="388" width="60" height="40" as="geometry" />
        </mxCell>
        <mxCell id="VpwYdxR6YieiCVpPiCMP-28" value="&lt;b&gt;&lt;font style=&quot;font-size: 15px;&quot;&gt;.gitlab_cicd.yml&lt;/font&gt;&lt;/b&gt;" style="rounded=0;whiteSpace=wrap;html=1;fillColor=#dae8fc;strokeColor=#6c8ebf;" parent="1" vertex="1">
          <mxGeometry x="69" y="362" width="139" height="30" as="geometry" />
        </mxCell>
        <mxCell id="VpwYdxR6YieiCVpPiCMP-33" style="edgeStyle=orthogonalEdgeStyle;rounded=0;orthogonalLoop=1;jettySize=auto;html=1;exitX=1;exitY=0.5;exitDx=0;exitDy=0;startArrow=classic;startFill=1;endArrow=none;endFill=0;" parent="1" source="VpwYdxR6YieiCVpPiCMP-30" target="VpwYdxR6YieiCVpPiCMP-31" edge="1">
          <mxGeometry relative="1" as="geometry">
            <mxPoint x="68" y="906" as="sourcePoint" />
          </mxGeometry>
        </mxCell>
        <mxCell id="nYVsloN-27Saqx4OQUJ_-12" style="edgeStyle=orthogonalEdgeStyle;rounded=0;orthogonalLoop=1;jettySize=auto;html=1;exitX=0.5;exitY=0;exitDx=0;exitDy=0;entryX=0.25;entryY=1;entryDx=0;entryDy=0;" parent="1" source="VpwYdxR6YieiCVpPiCMP-30" target="VpwYdxR6YieiCVpPiCMP-21" edge="1">
          <mxGeometry relative="1" as="geometry" />
        </mxCell>
        <mxCell id="VpwYdxR6YieiCVpPiCMP-30" value="&lt;b&gt;&lt;font style=&quot;font-size: 15px;&quot;&gt;Greentea&lt;/font&gt;&lt;/b&gt;" style="rounded=0;whiteSpace=wrap;html=1;fillColor=#e1d5e7;strokeColor=#9673a6;dashed=1;strokeWidth=2;" parent="1" vertex="1">
          <mxGeometry x="-143" y="654" width="124" height="60" as="geometry" />
        </mxCell>
        <mxCell id="96XgoVTAKxA-mke_sgVg-2" style="edgeStyle=orthogonalEdgeStyle;rounded=0;orthogonalLoop=1;jettySize=auto;html=1;exitX=0.75;exitY=0;exitDx=0;exitDy=0;entryX=0;entryY=1;entryDx=0;entryDy=0;endArrow=none;endFill=0;" edge="1" parent="1" source="VpwYdxR6YieiCVpPiCMP-31" target="nYVsloN-27Saqx4OQUJ_-2">
          <mxGeometry relative="1" as="geometry">
            <Array as="points">
              <mxPoint x="147" y="634" />
            </Array>
          </mxGeometry>
        </mxCell>
        <mxCell id="VpwYdxR6YieiCVpPiCMP-31" value="&lt;span style=&quot;font-size: 15px;&quot;&gt;&lt;b&gt;开发板阵列&lt;/b&gt;&lt;/span&gt;" style="rounded=0;whiteSpace=wrap;html=1;fillColor=#d5e8d4;strokeColor=#82b366;" parent="1" vertex="1">
          <mxGeometry x="57" y="711" width="120" height="60" as="geometry" />
        </mxCell>
        <mxCell id="VpwYdxR6YieiCVpPiCMP-39" style="edgeStyle=orthogonalEdgeStyle;rounded=0;orthogonalLoop=1;jettySize=auto;html=1;entryX=0.5;entryY=0;entryDx=0;entryDy=0;exitX=0.75;exitY=1;exitDx=0;exitDy=0;" parent="1" source="VpwYdxR6YieiCVpPiCMP-21" target="VpwYdxR6YieiCVpPiCMP-31" edge="1">
          <mxGeometry relative="1" as="geometry">
            <mxPoint x="95" y="716" as="sourcePoint" />
          </mxGeometry>
        </mxCell>
        <mxCell id="VpwYdxR6YieiCVpPiCMP-41" value="&lt;b style=&quot;font-size: 15px; text-wrap: nowrap;&quot;&gt;烧录&lt;/b&gt;" style="text;html=1;align=center;verticalAlign=middle;whiteSpace=wrap;rounded=0;fillColor=#f5f5f5;fontColor=#333333;strokeColor=#666666;" parent="1" vertex="1">
          <mxGeometry x="26" y="657" width="61" height="25" as="geometry" />
        </mxCell>
        <mxCell id="VpwYdxR6YieiCVpPiCMP-42" value="&lt;b style=&quot;font-size: 15px; text-wrap: nowrap;&quot;&gt;收集log&lt;/b&gt;" style="text;html=1;align=center;verticalAlign=middle;whiteSpace=wrap;rounded=0;fillColor=#f5f5f5;fontColor=#333333;strokeColor=#666666;" parent="1" vertex="1">
          <mxGeometry x="-33" y="728.5" width="79" height="25" as="geometry" />
        </mxCell>
        <mxCell id="nYVsloN-27Saqx4OQUJ_-2" value="" style="rounded=0;whiteSpace=wrap;html=1;dashed=1;strokeWidth=2;fillColor=#e1d5e7;strokeColor=#9673a6;" parent="1" vertex="1">
          <mxGeometry x="227" y="444" width="229" height="190" as="geometry" />
        </mxCell>
        <mxCell id="nYVsloN-27Saqx4OQUJ_-6" value="&lt;div&gt;&lt;span style=&quot;font-size: 15px; text-wrap: nowrap;&quot;&gt;&lt;b&gt;Node-red&lt;/b&gt;&lt;/span&gt;&lt;/div&gt;" style="text;html=1;align=center;verticalAlign=middle;whiteSpace=wrap;rounded=0;fillColor=#f5f5f5;fontColor=#333333;strokeColor=#666666;" parent="1" vertex="1">
          <mxGeometry x="302.25" y="388" width="78.5" height="40" as="geometry" />
        </mxCell>
        <mxCell id="nYVsloN-27Saqx4OQUJ_-14" style="edgeStyle=orthogonalEdgeStyle;rounded=0;orthogonalLoop=1;jettySize=auto;html=1;exitX=0.5;exitY=0;exitDx=0;exitDy=0;entryX=0.75;entryY=1;entryDx=0;entryDy=0;" parent="1" source="nYVsloN-27Saqx4OQUJ_-7" target="nYVsloN-27Saqx4OQUJ_-2" edge="1">
          <mxGeometry relative="1" as="geometry" />
        </mxCell>
        <mxCell id="nYVsloN-27Saqx4OQUJ_-7" value="&lt;b&gt;&lt;font style=&quot;font-size: 15px;&quot;&gt;Database&lt;/font&gt;&lt;/b&gt;" style="rounded=0;whiteSpace=wrap;html=1;fillColor=#e1d5e7;strokeColor=#9673a6;dashed=1;strokeWidth=2;" parent="1" vertex="1">
          <mxGeometry x="373" y="654" width="83" height="60" as="geometry" />
        </mxCell>
        <mxCell id="nYVsloN-27Saqx4OQUJ_-8" value="&lt;b&gt;&lt;font style=&quot;font-size: 15px;&quot;&gt;RGW&lt;/font&gt;&lt;/b&gt;" style="rounded=0;whiteSpace=wrap;html=1;fillColor=#e1d5e7;strokeColor=#9673a6;dashed=1;strokeWidth=2;" parent="1" vertex="1">
          <mxGeometry x="227" y="654" width="65" height="60" as="geometry" />
        </mxCell>
        <mxCell id="nYVsloN-27Saqx4OQUJ_-13" style="edgeStyle=orthogonalEdgeStyle;rounded=0;orthogonalLoop=1;jettySize=auto;html=1;exitX=0.5;exitY=0;exitDx=0;exitDy=0;entryX=0.144;entryY=0.995;entryDx=0;entryDy=0;entryPerimeter=0;" parent="1" source="nYVsloN-27Saqx4OQUJ_-8" target="nYVsloN-27Saqx4OQUJ_-2" edge="1">
          <mxGeometry relative="1" as="geometry" />
        </mxCell>
        <mxCell id="nYVsloN-27Saqx4OQUJ_-19" value="信息查询节点" style="rounded=0;whiteSpace=wrap;html=1;fillColor=#fff2cc;strokeColor=#d6b656;fontSize=15;fontStyle=1" parent="1" vertex="1">
          <mxGeometry x="281.5" y="469" width="120" height="40" as="geometry" />
        </mxCell>
        <mxCell id="nYVsloN-27Saqx4OQUJ_-20" value="处理log节点" style="rounded=0;whiteSpace=wrap;html=1;fillColor=#fff2cc;strokeColor=#d6b656;fontSize=15;fontStyle=1" parent="1" vertex="1">
          <mxGeometry x="281.5" y="517" width="120" height="40" as="geometry" />
        </mxCell>
        <mxCell id="nYVsloN-27Saqx4OQUJ_-21" value="……" style="rounded=0;whiteSpace=wrap;html=1;fillColor=#fff2cc;strokeColor=#d6b656;fontSize=15;fontStyle=1" parent="1" vertex="1">
          <mxGeometry x="281.5" y="562" width="120" height="40" as="geometry" />
        </mxCell>
        <mxCell id="VpwYdxR6YieiCVpPiCMP-49" value="&lt;b style=&quot;font-size: 15px; text-wrap: nowrap;&quot;&gt;解析并&lt;/b&gt;&lt;div&gt;&lt;b style=&quot;font-size: 15px; text-wrap: nowrap;&quot;&gt;存储log&lt;/b&gt;&lt;/div&gt;" style="text;html=1;align=center;verticalAlign=middle;whiteSpace=wrap;rounded=0;fillColor=#f5f5f5;fontColor=#333333;strokeColor=#666666;" parent="1" vertex="1">
          <mxGeometry x="236" y="602" width="73" height="44" as="geometry" />
        </mxCell>
        <mxCell id="nYVsloN-27Saqx4OQUJ_-17" value="&lt;span style=&quot;font-size: 15px; text-wrap: nowrap;&quot;&gt;&lt;b&gt;查询数进库&lt;/b&gt;&lt;/span&gt;" style="text;html=1;align=center;verticalAlign=middle;whiteSpace=wrap;rounded=0;fillColor=#f5f5f5;fontColor=#333333;strokeColor=#666666;" parent="1" vertex="1">
          <mxGeometry x="380.75" y="602" width="73" height="44" as="geometry" />
        </mxCell>
        <mxCell id="nYVsloN-27Saqx4OQUJ_-22" value="&lt;div&gt;&lt;span style=&quot;font-size: 15px; text-wrap: nowrap;&quot;&gt;&lt;b&gt;多次http请求&lt;/b&gt;&lt;/span&gt;&lt;/div&gt;" style="text;html=1;align=center;verticalAlign=middle;whiteSpace=wrap;rounded=0;fillColor=#f8cecc;strokeColor=#b85450;" parent="1" vertex="1">
          <mxGeometry x="117" y="504" width="78.5" height="40" as="geometry" />
        </mxCell>
        <mxCell id="nYVsloN-27Saqx4OQUJ_-23" value="&lt;b&gt;&lt;font style=&quot;font-size: 15px;&quot;&gt;WEB&lt;/font&gt;&lt;/b&gt;" style="rounded=0;whiteSpace=wrap;html=1;fillColor=#e1d5e7;strokeColor=#9673a6;dashed=1;strokeWidth=2;" parent="1" vertex="1">
          <mxGeometry x="300" y="654" width="65" height="60" as="geometry" />
        </mxCell>
        <mxCell id="nYVsloN-27Saqx4OQUJ_-24" style="edgeStyle=orthogonalEdgeStyle;rounded=0;orthogonalLoop=1;jettySize=auto;html=1;exitX=0.5;exitY=0;exitDx=0;exitDy=0;entryX=0.463;entryY=1.005;entryDx=0;entryDy=0;entryPerimeter=0;" parent="1" source="nYVsloN-27Saqx4OQUJ_-23" target="nYVsloN-27Saqx4OQUJ_-2" edge="1">
          <mxGeometry relative="1" as="geometry" />
        </mxCell>
        <mxCell id="nYVsloN-27Saqx4OQUJ_-25" value="&lt;span style=&quot;font-size: 15px; text-wrap: nowrap;&quot;&gt;&lt;b&gt;页面展示&lt;/b&gt;&lt;/span&gt;" style="text;html=1;align=center;verticalAlign=middle;whiteSpace=wrap;rounded=0;fillColor=#f5f5f5;fontColor=#333333;strokeColor=#666666;" parent="1" vertex="1">
          <mxGeometry x="316" y="602" width="57" height="44" as="geometry" />
        </mxCell>
        <mxCell id="96XgoVTAKxA-mke_sgVg-1" value="WEB" style="rounded=0;whiteSpace=wrap;html=1;fillColor=#f8cecc;strokeColor=#b85450;gradientColor=#ea6b66;" vertex="1" parent="1">
          <mxGeometry x="-541" y="464" width="120" height="60" as="geometry" />
        </mxCell>
        <mxCell id="96XgoVTAKxA-mke_sgVg-3" value="&lt;span style=&quot;font-size: 15px; text-wrap: nowrap;&quot;&gt;&lt;b&gt;查询&lt;/b&gt;&lt;/span&gt;" style="text;html=1;align=center;verticalAlign=middle;whiteSpace=wrap;rounded=0;fillColor=#f8cecc;strokeColor=#b85450;gradientColor=#ea6b66;" vertex="1" parent="1">
          <mxGeometry x="135.5" y="643" width="60" height="30" as="geometry" />
        </mxCell>
        <mxCell id="96XgoVTAKxA-mke_sgVg-4" value="&lt;span style=&quot;font-size: 15px; text-wrap: nowrap;&quot;&gt;&lt;b&gt;优化&lt;/b&gt;&lt;/span&gt;" style="text;html=1;align=center;verticalAlign=middle;whiteSpace=wrap;rounded=0;fillColor=#f8cecc;strokeColor=#b85450;gradientColor=#ea6b66;" vertex="1" parent="1">
          <mxGeometry x="435" y="698.5" width="60" height="30" as="geometry" />
        </mxCell>
        <mxCell id="96XgoVTAKxA-mke_sgVg-5" value="&lt;span style=&quot;font-size: 15px; text-wrap: nowrap;&quot;&gt;&lt;b&gt;优化&lt;/b&gt;&lt;/span&gt;" style="text;html=1;align=center;verticalAlign=middle;whiteSpace=wrap;rounded=0;fillColor=#f8cecc;strokeColor=#b85450;gradientColor=#ea6b66;" vertex="1" parent="1">
          <mxGeometry x="318" y="698.5" width="60" height="30" as="geometry" />
        </mxCell>
      </root>
    </mxGraphModel>
  </diagram>
</mxfile>
